<?xml version="1.0" encoding="utf-8"?>
<!-- Generator: Adobe Illustrator 23.1.1, SVG Export Plug-In . SVG Version: 6.00 Build 0)  -->
<svg version="1.1" id="Layer_1" xmlns="http://www.w3.org/2000/svg" xmlns:xlink="http://www.w3.org/1999/xlink" x="0px" y="0px"
width="12.6" height="24.2" viewBox="0 0 12.6 24.2" style="enable-background:new 0 0 12.6 24.2;" xml:space="preserve">
<style type="text/css">
	.st0{fill:#FFFFFF;}
</style>
<path class="st0" d="M8,0C8,0,8,0,8,0c0.1,0,0.2,0,0.2,0h2c0.4,0,0.8,0.2,1.1,0.5c0.3,0.3,0.5,0.7,0.5,1.1c0,0,0,0,0,0c0,0,0,0,0,0
	v2.3c0,0.4-0.2,0.8-0.5,1.1c-0.3,0.3-0.7,0.5-1.1,0.5H8.6V7H11c0.2,0,0.5,0.1,0.7,0.2c0.2,0.1,0.4,0.3,0.5,0.5
	c0.1,0.2,0.2,0.4,0.3,0.6c0,0.2,0,0.5,0,0.7l-0.5,2.3c-0.1,0.3-0.3,0.6-0.6,0.8c-0.3,0.2-0.6,0.3-1,0.3H8.6v10.1
	c0,0.4-0.2,0.8-0.5,1.1C7.8,24,7.5,24.2,7,24.2H4.7c-0.4,0-0.8-0.2-1.1-0.5c-0.3-0.3-0.5-0.7-0.5-1.1V12.5H1.6
	c-0.4,0-0.8-0.2-1.1-0.5C0.2,11.7,0,11.4,0,10.9V8.6C0,8.4,0,8.2,0.1,8c0.1-0.2,0.2-0.4,0.3-0.5S0.8,7.2,1,7.2C1.2,7.1,1.4,7,1.6,7
	h1.6V5c0-1.2,0.2-2.1,0.7-2.8c0.5-0.7,1-1.1,1.4-1.4c0.5-0.3,1-0.5,1.5-0.6C7.3,0,7.7,0,8,0L8,0z M8,1.6c-0.3,0-1,0.2-1.9,0.5
	C5.2,2.4,4.7,3.4,4.7,5c0,0.4,0,1.6,0,3.6H1.6v2.3h3.1v11.7H7V10.9h3.4L11,8.6H7V4.9c0.2-0.6,0.5-1,1.1-1h2V1.6h-2
	C8.1,1.6,8,1.6,8,1.6L8,1.6z"/>
</svg>
