<?xml version="1.0" encoding="utf-8"?>
<!-- Generator: Adobe Illustrator 23.1.1, SVG Export Plug-In . SVG Version: 6.00 Build 0)  -->
<svg version="1.1" id="Layer_1" xmlns="http://www.w3.org/2000/svg" xmlns:xlink="http://www.w3.org/1999/xlink" x="0px" y="0px"
width="25" height="23.5" viewBox="0 0 25 23.5" style="enable-background:new 0 0 25 23.5;" xml:space="preserve">
<style type="text/css">
	.st0{fill:#FFFFFF;}
</style>
<path class="st0" d="M12.7,12.5c1.1,0.8,1.8,1.6,2.2,2.4c0.4,0.8,0.6,1.7,0.6,2.9c0,0.8-0.2,1.5-0.6,2.2c-0.4,0.7-0.9,1.3-1.6,1.9
	c-0.7,0.6-1.6,1-2.5,1.3c-0.9,0.3-2,0.4-3.1,0.4c-1.1,0-2.2-0.1-3.1-0.4c-1-0.2-1.8-0.6-2.5-1c-0.7-0.4-1.2-0.9-1.6-1.6
	C0.2,20,0,19.3,0,18.6c0-0.7,0.2-1.5,0.5-2.2s0.9-1.4,1.6-2c0.6-0.5,1.3-0.9,2-1.2c0.8-0.3,1.6-0.5,2.4-0.6c0-0.1,0-0.2,0-0.3
	c0-0.1,0-0.2,0-0.3c0,0,0-0.1,0-0.1c0,0,0-0.1,0-0.1c-0.7-0.1-1.4-0.3-2.1-0.6c-0.6-0.3-1.2-0.7-1.6-1.2c-0.4-0.5-0.8-1.1-1-1.8
	C1.6,7.5,1.4,6.8,1.4,6c0-0.8,0.2-1.6,0.5-2.3C2.4,3,2.9,2.3,3.5,1.8c0.6-0.5,1.4-1,2.2-1.3C6.5,0.2,7.4,0,8.3,0h6.3
	c0.3,0,0.5,0.1,0.7,0.3c0.2,0.2,0.3,0.4,0.3,0.7c0,0.1,0,0.3-0.1,0.4c-0.1,0.1-0.1,0.2-0.2,0.3L14,3.2c0,0-0.1,0.1-0.1,0.1
	c0,0-0.1,0.1-0.1,0.1c0.2,0.4,0.4,0.8,0.5,1.3c0.1,0.5,0.2,0.9,0.2,1.4c0,0.8-0.2,1.5-0.6,2.2c-0.4,0.7-0.9,1.4-1.7,1.9
	c-0.4,0.3-0.6,0.5-0.7,0.6c-0.1,0.1-0.1,0.2-0.2,0.3c0,0.1,0.2,0.2,0.3,0.4c0.2,0.2,0.5,0.4,1,0.8L12.7,12.5z M8.6,13.4L9,13.7H8.4
	c-0.1,0-0.2,0-0.3,0c-0.1,0-0.2,0-0.3,0c-0.1,0-0.2,0-0.3,0c-0.1,0-0.2,0-0.3,0c-0.9,0-1.7,0.1-2.5,0.4c-0.7,0.3-1.4,0.6-1.9,1.1
	c-0.5,0.4-0.9,1-1.2,1.5c-0.3,0.6-0.4,1.1-0.4,1.7c0,0.5,0.2,1,0.5,1.5c0.3,0.4,0.8,0.8,1.4,1.2c0.6,0.3,1.3,0.6,2.1,0.8
	c0.8,0.2,1.7,0.3,2.6,0.3c1,0,1.9-0.1,2.7-0.4c0.8-0.3,1.5-0.6,2.1-1c0.6-0.4,1-0.9,1.3-1.5c0.3-0.5,0.5-1.1,0.5-1.7
	c0-0.9-0.1-1.6-0.4-2.2s-0.9-1.3-1.9-2l-0.1-0.1c-0.5-0.3-0.9-0.7-1.3-1c-0.4-0.3-0.6-0.7-0.6-1c0-0.4,0.1-0.8,0.3-1
	c0.2-0.3,0.5-0.6,1.1-1c0.6-0.5,1-1,1.3-1.5s0.4-1.1,0.4-1.7c0-0.7-0.1-1.4-0.4-2c-0.3-0.6-0.7-1-1.2-1.3l-0.8-0.5h2.4l1-1H8.3
	c-0.7,0-1.5,0.1-2.1,0.4c-0.7,0.3-1.3,0.6-1.8,1C3.9,3.1,3.5,3.6,3.2,4.2C2.9,4.7,2.7,5.3,2.7,6c0,1.4,0.4,2.5,1.2,3.3
	s1.9,1.2,3.3,1.2c0.1,0,0.2,0,0.3,0c0.1,0,0.2,0,0.3,0l0.4,0l-0.2,0.4C8,11,7.9,11.2,7.8,11.4c0,0.2-0.1,0.4-0.1,0.5
	c0,0.3,0.1,0.6,0.2,0.8C8.1,12.9,8.3,13.1,8.6,13.4L8.6,13.4z M8.1,14.1L8.1,14.1c0.4,0,0.7,0,0.9,0.1c0.3,0,0.6,0.1,0.8,0.2l0,0
	c0.1,0.1,0.2,0.1,0.3,0.2c0.1,0.1,0.2,0.1,0.3,0.2c0.6,0.4,1.1,0.8,1.5,1.1c0.4,0.4,0.7,0.8,0.8,1.3c0,0.1,0.1,0.3,0.1,0.4
	c0,0.1,0,0.2,0,0.4c0,0.8-0.3,1.7-1,2.5c-0.6,0.8-2,1.2-4.1,1.2c-1.3,0-2.4-0.4-3.3-1.1c-0.9-0.7-1.3-1.6-1.3-2.7
	c0-1,0.5-1.9,1.5-2.6C5.6,14.5,6.7,14.1,8.1,14.1L8.1,14.1z M9.3,15.6c-0.2,0-0.4-0.1-0.6-0.1c-0.2,0-0.4,0-0.6,0h0
	c-1,0-1.8,0.2-2.5,0.7c-0.7,0.5-1.1,1.1-1.1,1.7c0,0.7,0.3,1.3,1,1.8c0.7,0.5,1.4,0.7,2.4,0.7c1.7,0,2.8-0.3,3.2-0.8
	c0.4-0.5,0.6-1.1,0.6-1.6c0-0.1,0-0.2,0-0.2c0-0.1,0-0.1,0-0.2c-0.1-0.3-0.3-0.5-0.6-0.8c-0.3-0.3-0.7-0.5-1.2-0.9
	c-0.1,0-0.1-0.1-0.2-0.1C9.5,15.7,9.4,15.6,9.3,15.6L9.3,15.6z M10.4,9.2c-0.2,0.3-0.5,0.5-0.8,0.6C9.3,9.9,8.9,10,8.5,10H8.5
	c-1,0-1.8-0.4-2.5-1.2S4.8,7.1,4.6,6C4.5,5.3,4.5,4.7,4.7,4.1C4.8,3.5,5.1,3,5.4,2.6C5.7,2.4,5.9,2.1,6.3,2c0.3-0.2,0.7-0.2,1-0.2
	h0.1c0.9,0,1.7,0.5,2.4,1.3s1.1,1.8,1.3,3.1c0.1,0.7,0.1,1.2-0.1,1.8S10.7,8.9,10.4,9.2L10.4,9.2z M9.4,8.4c0.2-0.2,0.3-0.5,0.4-0.9
	c0.1-0.4,0.1-0.8,0-1.2C9.7,5.4,9.4,4.6,8.9,4C8.5,3.4,7.9,3,7.3,3h0C7.1,3,7,3.1,6.8,3.1C6.6,3.2,6.5,3.3,6.4,3.5
	C6.1,3.7,6,4.1,5.9,4.5c-0.1,0.4-0.1,0.8,0,1.3C6,6.6,6.3,7.3,6.8,7.9c0.5,0.6,1.1,0.9,1.7,0.9h0c0.2,0,0.4,0,0.5-0.1
	C9.2,8.6,9.4,8.5,9.4,8.4L9.4,8.4z M23.8,2.8c0.3,0,0.5,0.1,0.8,0.3C24.9,3.4,25,3.6,25,3.9v1.5c0,0.3-0.1,0.5-0.4,0.7
	c-0.3,0.2-0.5,0.3-0.8,0.3h-2v1.9c0,0.3-0.1,0.5-0.2,0.7c-0.2,0.2-0.4,0.3-0.7,0.3h-1.5c-0.3,0-0.5-0.1-0.8-0.3
	c-0.2-0.2-0.4-0.4-0.4-0.7V6.4h-1.8c-0.3,0-0.5-0.1-0.8-0.3c-0.2-0.2-0.4-0.4-0.4-0.7V3.9c0-0.3,0.1-0.5,0.4-0.7
	c0.2-0.2,0.5-0.3,0.8-0.3h1.8V1c0-0.3,0.1-0.5,0.4-0.7C18.9,0.1,19.2,0,19.4,0h1.5c0.3,0,0.5,0.1,0.7,0.3c0.2,0.2,0.2,0.4,0.2,0.7
	v1.9H23.8z M16.7,5.1h2.9V8h1V5.1h3.2v-1h-3.2V1.2h-1v2.9h-2.9V5.1z"/>
</svg>
