<?xml version="1.0" encoding="utf-8"?>
<!-- Generator: Adobe Illustrator 23.1.1, SVG Export Plug-In . SVG Version: 6.00 Build 0)  -->
<svg version="1.1" id="Layer_1" xmlns="http://www.w3.org/2000/svg" xmlns:xlink="http://www.w3.org/1999/xlink" x="0px" y="0px"
width="25" height="24" viewBox="0 0 25 24" style="enable-background:new 0 0 25 24;" xml:space="preserve">
<style type="text/css">
	.st0{fill:#FFFFFF;}
</style>
<path class="st0" d="M3.5,6.6c-1,0-1.8-0.3-2.5-0.9C0.3,5,0,4.2,0,3.3c0-1,0.3-1.7,1-2.4C1.7,0.3,2.5,0,3.5,0c1,0,1.8,0.3,2.5,0.9
	c0.7,0.6,1,1.4,1,2.4c0,1-0.3,1.8-1,2.4C5.4,6.3,4.5,6.6,3.5,6.6L3.5,6.6z M1,24c-0.2,0-0.3-0.1-0.5-0.2c-0.1-0.1-0.2-0.3-0.2-0.5V8
	c0-0.2,0.1-0.3,0.2-0.5C0.6,7.4,0.8,7.4,1,7.4H6c0.2,0,0.3,0.1,0.5,0.2C6.6,7.7,6.7,7.9,6.7,8v15.3c0,0.2-0.1,0.3-0.2,0.5
	C6.4,23.9,6.2,24,6,24H1z M3.5,1.3c-0.7,0-1.2,0.2-1.6,0.5S1.3,2.7,1.3,3.3c0,0.6,0.2,1.1,0.6,1.4c0.4,0.4,0.9,0.6,1.6,0.6h0
	c0.7,0,1.2-0.2,1.6-0.5c0.4-0.4,0.6-0.9,0.6-1.5c0-0.6-0.2-1.1-0.6-1.5S4.2,1.3,3.5,1.3L3.5,1.3z M5.4,22.7v-14H1.6v14H5.4z
	 M19.3,24c-0.2,0-0.3-0.1-0.5-0.2c-0.1-0.1-0.2-0.3-0.2-0.5v-8.2c0-1.4-0.3-2.2-0.8-2.5c-0.5-0.2-0.9-0.4-1.1-0.4
	c-0.6,0-1.1,0.2-1.4,0.6c-0.3,0.4-0.5,0.7-0.6,0.9c0,0.1-0.1,0.2-0.1,0.4s0,0.4,0,0.6v8.5c0,0.2-0.1,0.3-0.2,0.5
	c-0.1,0.1-0.3,0.2-0.5,0.2H8.8c-0.1,0-0.2,0-0.2,0c-0.1,0-0.2-0.1-0.2-0.1c0-0.1-0.1-0.1-0.1-0.2c0-0.1-0.1-0.2,0-0.2
	c0,0,0-0.8,0-2.2s0-3.1,0-4.9c0-1.8,0-3.5,0-5.2c0-1.6,0-2.6,0-3c0-0.1,0-0.2,0-0.3c0-0.1,0.1-0.2,0.1-0.2c0.1-0.1,0.1-0.1,0.2-0.1
	c0.1,0,0.2,0,0.2,0h5.1c0.2,0,0.3,0.1,0.5,0.2c0.1,0.1,0.2,0.3,0.2,0.5v0.4c0.4-0.4,1-0.7,1.6-1C16.8,7.1,17.6,7,18.5,7
	c1,0,1.9,0.2,2.7,0.5c0.8,0.3,1.5,0.8,2,1.5c0.6,0.7,1,1.4,1.3,2.4s0.4,2,0.4,3.2v8.8c0,0.2-0.1,0.3-0.2,0.5S24.5,24,24.4,24H19.3z
	 M23.7,22.7v-8.1c0-1-0.1-1.9-0.3-2.6c-0.2-0.8-0.6-1.4-1-2c-0.4-0.5-1-0.9-1.6-1.2c-0.6-0.3-1.4-0.4-2.2-0.4c-1.1,0-2,0.2-2.6,0.7
	c-0.6,0.4-1.1,0.9-1.4,1.4c0,0.1-0.1,0.2-0.2,0.3c-0.1,0.1-0.2,0.1-0.4,0.1h0c-0.1,0-0.2,0-0.3-0.1c-0.1-0.1-0.2-0.1-0.2-0.3
	c0-0.1-0.1-0.2-0.1-0.3c0-0.1,0-0.2,0-0.3V8.7H9.5c0,0.7,0,1.7,0,3c0,1.3,0,2.7,0,4.1c0,1.4,0,2.8,0,4.1c0,1.3,0,2.2,0,2.9h3.8v-7.9
	c0-0.3,0-0.6,0-0.9c0-0.2,0.1-0.5,0.2-0.6c0.3-0.7,0.7-1.3,1.3-1.7c0.6-0.4,1.2-0.6,1.9-0.6c1,0,1.8,0.4,2.4,1.1
	c0.6,0.7,0.8,1.7,0.8,3.1v7.5H23.7z"/>
</svg>
