<?xml version="1.0" encoding="utf-8"?>
<!-- Generator: Adobe Illustrator 23.1.1, SVG Export Plug-In . SVG Version: 6.00 Build 0)  -->
<svg version="1.1"
	 id="svg3959" xmlns:cc="http://creativecommons.org/ns#" xmlns:dc="http://purl.org/dc/elements/1.1/" xmlns:inkscape="http://www.inkscape.org/namespaces/inkscape" xmlns:rdf="http://www.w3.org/1999/02/22-rdf-syntax-ns#" xmlns:sodipodi="http://sodipodi.sourceforge.net/DTD/sodipodi-0.dtd" xmlns:svg="http://www.w3.org/2000/svg"
	 xmlns="http://www.w3.org/2000/svg" xmlns:xlink="http://www.w3.org/1999/xlink" x="0px" y="0px" viewBox="0 0 305.5 77.7"
	 style="enable-background:new 0 0 305.5 77.7;" xml:space="preserve">
<style type="text/css">
	.st0{fill:#FFFFFF;}
</style>
<g id="g4993" transform="matrix(0.41144603,0,0,0.41144603,179.02789,270.89279)" inkscape:export-filename="C:\Users\suitedoalex\sites\waze-logo-7.png" inkscape:export-xdpi="15.437709" inkscape:export-ydpi="15.437709">
	<g>
		<g id="g4995">
			<g id="g5001" transform="translate(391.9561,201.02831)">
				<path id="path5003" class="st0" d="M-727.4-793.8c0,5.8-4.7,10.5-10.5,10.5s-10.5-4.7-10.5-10.5c0-5.8,4.7-10.5,10.5-10.5
					S-727.4-799.6-727.4-793.8"/>
			</g>
		</g>
	</g>
</g>
<g id="g5005" transform="matrix(0.41144603,0,0,0.41144603,179.0279,270.89279)" inkscape:export-filename="C:\Users\suitedoalex\sites\waze-logo-7.png" inkscape:export-xdpi="15.437709" inkscape:export-ydpi="15.437709">
	<g>
		<g id="g5007">
			<g id="g5013" transform="translate(432.22659,202.3452)">
				<path id="path5015" class="st0" d="M-717.3-796.7c0,5.8-4.7,10.5-10.5,10.5c-5.8,0-10.5-4.7-10.5-10.5c0-5.8,4.7-10.5,10.5-10.5
					C-722-807.3-717.3-802.6-717.3-796.7"/>
			</g>
		</g>
	</g>
</g>
<g id="g5017" transform="matrix(0.41144603,0,0,0.41144603,179.02789,270.8928)" inkscape:export-filename="C:\Users\suitedoalex\sites\waze-logo-7.png" inkscape:export-xdpi="15.437709" inkscape:export-ydpi="15.437709">
	<g>
		<g id="g5019">
			<g id="g5025" transform="translate(403.78371,155.8149)">
				<path id="path5027" class="st0" d="M-724.4-692c-9,0-17.7-2.9-24.7-8.3c-7.1-5.4-11.6-13-12.5-20.6c-0.3-3,1.8-5.7,4.8-6.1
					c3-0.3,5.7,1.8,6.1,4.8c1.3,11.7,15.3,19.5,27.1,19.2c15-0.4,24.9-9.3,26.9-18c0.7-2.9,3.7-4.8,6.6-4.1c2.9,0.7,4.8,3.6,4.1,6.6
					c-1.7,7.1-6.2,13.6-12.8,18.4c-6.9,5-15.3,7.8-24.5,8C-723.7-692-724.1-692-724.4-692"/>
			</g>
		</g>
	</g>
</g>
<g>
	<g id="g5031">
		<g id="g5037" transform="translate(519.59959,148.91409)">
			<path id="path5039" inkscape:connector-curvature="0" class="st0" d="M-408.9-87.1l-11.9-34.4c-0.3-0.8-0.6-2.2-0.6-3.4
				c0-3.2,2.5-6.3,6.6-6.3c3.5,0,5.7,2.2,6.7,5.4l7.5,24.7l7.6-24.6c1-3.3,3.5-5.5,7.1-5.5h0.8c3.5,0,6.1,2.3,7.1,5.5l7.7,24.7
				l7.6-24.9c0.9-2.9,3-5.3,6.6-5.3c3.8,0,6.5,2.9,6.5,6.4c0,0.9-0.3,2.2-0.5,2.8l-12.3,34.8c-1.5,4.3-4.3,6.2-7.6,6.2h-0.5
				c-3.4,0-6.2-1.9-7.5-5.9l-7.7-24.5l-7.8,24.5c-1.3,4-4.1,5.9-7.5,5.9h-0.5C-404.7-80.9-407.5-82.8-408.9-87.1"/>
		</g>
	</g>
</g>
<g id="g5041" transform="matrix(0.41144603,0,0,0.41144603,182.22789,264.49279)" inkscape:export-filename="C:\Users\suitedoalex\sites\waze-logo-7.png" inkscape:export-xdpi="15.437709" inkscape:export-ydpi="15.437709">
	<g>
		<g id="g5043">
			<g id="g5049" transform="translate(694.00391,172.061)">
				<path id="path5051" inkscape:connector-curvature="0" class="st0" d="M-649.9-693.6v-6c-5.7-2.7-13.3-4.4-21.4-4.4
					c-14.4,0-23.2,5.7-23.2,16.3v0.4c0,9.1,7.5,14.4,18.3,14.4C-660.5-672.8-649.9-681.4-649.9-693.6 M-727-685.9v-0.4
					c0-25.8,19.7-37.8,47.7-37.8c11.9,0,20.5,2,28.9,4.9v-2c0-13.9-8.6-21.6-25.4-21.6c-9.3,0-16.8,1.3-23.2,3.3
					c-2,0.7-3.3,0.9-4.9,0.9c-7.7,0-13.9-6-13.9-13.7c0-6,3.8-11,9.1-13c10.6-4,22.1-6.2,37.8-6.2c18.3,0,31.6,4.9,40,13.3
					c8.8,8.8,12.8,21.9,12.8,37.8v53.9c0,9.1-7.3,16.1-16.3,16.1c-9.7,0-16.1-6.8-16.1-13.9v-0.2c-8.2,9.1-19.4,15-35.8,15
					C-708.7-649.6-727-662.4-727-685.9"/>
			</g>
		</g>
	</g>
</g>
<g id="g5053" transform="matrix(0.41144603,0,0,0.41144603,182.22789,264.49278)" inkscape:export-filename="C:\Users\suitedoalex\sites\waze-logo-7.png" inkscape:export-xdpi="15.437709" inkscape:export-ydpi="15.437709">
	<g>
		<g id="g5055">
			<g id="g5061" transform="translate(723.6895,149.44341)">
				<path id="path5063" inkscape:connector-curvature="0" class="st0" d="M-642.5-642.7v-0.7c0-6.4,2.2-10.6,7.5-16.3l55-60.7h-46.8
					c-7.5,0-13.7-6-13.7-13.5c0-7.5,6.2-13.7,13.7-13.7h73.6c9.5,0,16.3,5.5,16.3,13.5v0.7c0,6.4-2.2,10.6-7.5,16.3l-55.2,60.7h49
					c7.5,0,13.7,6.2,13.7,13.7c0,7.5-6.2,13.5-13.7,13.5h-75.5C-635.7-629.2-642.5-634.8-642.5-642.7"/>
			</g>
		</g>
	</g>
</g>
<g id="g5065" transform="matrix(0.41144603,0,0,0.41144603,182.22789,264.49279)" inkscape:export-filename="C:\Users\suitedoalex\sites\waze-logo-7.png" inkscape:export-xdpi="15.437709" inkscape:export-ydpi="15.437709">
	<g>
		<g id="g5067">
			<g id="g5073" transform="translate(872.8203,193.4409)">
				<path id="path5075" inkscape:connector-curvature="0" class="st0" d="M-605.2-741.7c-2-15-10.8-25.2-25-25.2
					c-13.9,0-23,9.9-25.6,25.2H-605.2z M-626.9-670.6c-35.6,0-61.8-25-61.8-61.2v-0.4c0-33.8,24.1-61.6,58.5-61.6
					c39.5,0,57,32.5,57,57c0,9.7-6.8,16.1-15.7,16.1h-66.5c3.3,15.2,13.9,23.2,28.9,23.2c9.3,0,17-2.9,23.9-8
					c2.4-1.8,4.6-2.7,8.2-2.7c7.5,0,13,5.7,13,13.3c0,4.4-2,7.7-4.4,9.9C-596.2-676.1-609.7-670.6-626.9-670.6"/>
			</g>
		</g>
	</g>
</g>
<path class="st0" d="M85.7,29.4c-0.8-4.9-2.8-9.5-5.8-13.7C76.4,10.9,71.8,7,66.3,4.2C60.9,1.5,54.7,0,48.6,0
	c-1.7,0-3.5,0.1-5.2,0.3c-7.1,1-14.1,3.9-19.7,8.3c-6.3,5-10.4,11.4-11.8,18.5c-0.4,2.1-0.6,4.5-0.8,6.7c-0.3,3.5-0.5,7.2-1.7,9.6
	c-0.8,1.6-1.9,2.7-5,2.7c-1.7,0-3.3,1-4,2.5c-0.8,1.5-0.6,3.4,0.4,4.7c4.7,6.2,10.7,9.9,17.1,12.2c-0.4,1.1-0.5,2.4-0.4,3.6
	c0.4,5,4.8,8.7,9.8,8.3c4.6-0.4,8.1-4.2,8.3-8.7c2.1,0.1,4,0.1,5.9,0.1c0.3,0,0.6,0,0.9,0c0.2,0,0.4,0,0.7,0c0.3,0,0.7,0,1.1,0
	c0.4,0,0.8,0,1.2,0c1.1,0,2.1,0,3.2,0c0,0.1,0,0.2,0,0.3c0.4,5,4.8,8.7,9.8,8.3c5-0.4,8.7-4.8,8.3-9.8c-0.1-0.9-0.3-1.7-0.6-2.5
	c3.5-1.7,6.8-4,9.6-6.7c4-3.9,7-8.4,8.6-13.2C86.1,40,86.6,34.6,85.7,29.4z M26.6,72.1c-1.4,0-2.5-1.3-2.5-2.9
	c0-1.6,1.1-2.9,2.5-2.9c1.4,0,2.5,1.3,2.5,2.9C29.1,70.8,28,72.1,26.6,72.1z M57.7,72.1c-1.4,0-2.5-1.3-2.5-2.9
	c0-1.6,1.1-2.9,2.5-2.9c1.4,0,2.5,1.3,2.5,2.9C60.2,70.8,59.1,72.1,57.7,72.1z M80.1,44c-2.6,7.8-9.3,14.3-16.6,17.6
	c-1.8-1.5-4.1-2.3-6.6-2.1c-3.2,0.3-5.9,2.2-7.3,5c-1.5,0.1-2.9,0.1-4.2,0.1c-0.8,0-1.6,0-2.3,0c-0.2,0-0.5,0-0.7,0
	c-0.3,0-0.6,0-0.9,0c-2.2,0-4.5,0-6.9-0.2c-1.6-3.1-5.1-5.1-8.8-4.8c-2,0.2-3.9,1-5.3,2.3c-6.1-2-11.8-5.4-16.1-11
	c12.8,0,10.3-14.3,11.9-22.7C18.9,15.2,31.7,6.5,44.1,4.8c1.5-0.2,3-0.3,4.6-0.3v0C69,4.5,87.1,22.7,80.1,44z"/>
</svg>
