<?xml version="1.0" encoding="utf-8"?>
<!-- Generator: Adobe Illustrator 23.1.1, SVG Export Plug-In . SVG Version: 6.00 Build 0)  -->
<svg version="1.1" id="Layer_1" xmlns="http://www.w3.org/2000/svg" xmlns:xlink="http://www.w3.org/1999/xlink" x="0px" y="0px"
width="25" height="18" viewBox="0 0 25 18" style="enable-background:new 0 0 25 18;" xml:space="preserve">
<style type="text/css">
	.st0{fill:#FFFFFF;}
</style>
<path class="st0" d="M23,1.1c0.5,0.3,0.8,0.9,1.1,1.6c0.3,0.7,0.5,1.5,0.6,2.3c0.1,0.8,0.2,1.6,0.3,2.4C25,8.2,25,8.8,25,9.1
	c0,0.5,0,1.1-0.1,1.8c0,0.7-0.1,1.5-0.3,2.3c-0.1,0.8-0.3,1.5-0.6,2.1c-0.3,0.7-0.6,1.2-1.1,1.5c-0.2,0.1-0.5,0.2-0.8,0.4
	c-0.4,0.1-0.9,0.3-1.7,0.4c-0.8,0.1-1.8,0.2-3.1,0.3C16.1,18,14.5,18,12.5,18c-4.2,0-6.9-0.1-8.1-0.4c-1.2-0.3-1.8-0.5-2.1-0.6
	c-0.5-0.3-0.9-0.8-1.2-1.6c-0.3-0.7-0.5-1.5-0.7-2.3c-0.2-0.8-0.3-1.6-0.3-2.3S0,9.5,0,9.2c0-0.3,0-0.8,0.1-1.6
	c0-0.8,0.1-1.6,0.3-2.4c0.2-0.9,0.4-1.7,0.7-2.5C1.4,1.9,1.9,1.3,2.4,1c0.2-0.1,0.9-0.3,2-0.6C5.6,0.1,8.3,0,12.5,0
	c2,0,3.6,0,4.9,0.1c1.3,0.1,2.3,0.2,3.1,0.3c0.8,0.1,1.3,0.2,1.7,0.4C22.5,0.9,22.8,1,23,1.1L23,1.1z M22.1,15.6
	c0.3-0.2,0.7-0.9,1-2s0.4-2.6,0.5-4.5c0-1.9-0.2-3.4-0.5-4.6s-0.6-1.9-1-2.1c-0.1-0.1-0.8-0.3-2-0.5c-1.2-0.2-3.7-0.4-7.6-0.4
	c-3.7,0-6.2,0.1-7.3,0.3C4,2.1,3.3,2.2,3.2,2.3c-0.4,0.2-0.7,1-1.1,2.2S1.6,7.3,1.6,9.2c0,1.8,0.2,3.3,0.5,4.5
	c0.3,1.1,0.7,1.8,1.1,2.1c0.2,0.1,0.8,0.2,2,0.4c1.2,0.2,3.6,0.3,7.4,0.3c3.9,0,6.4-0.1,7.6-0.3C21.3,15.9,21.9,15.7,22.1,15.6
	L22.1,15.6z M17.6,8.4c0.1,0.1,0.2,0.2,0.3,0.3C18,8.8,18,8.9,18,9.1c0,0.1,0,0.3-0.1,0.4c-0.1,0.1-0.2,0.2-0.3,0.3l-7,4.3
	c0,0-0.1,0.1-0.2,0.1c-0.1,0-0.1,0-0.2,0c-0.1,0-0.1,0-0.2,0c-0.1,0-0.1,0-0.2-0.1c-0.1-0.1-0.2-0.2-0.3-0.3s-0.1-0.3-0.1-0.4V4.8
	c0-0.1,0-0.3,0.1-0.4s0.2-0.2,0.3-0.3C9.9,4,10.1,4,10.2,4c0.1,0,0.3,0,0.4,0.1L17.6,8.4z M11,12l4.7-2.9L11,6.1V12z"/>
</svg>
